<?xml version="1.0" encoding="UTF-8"?><svg id="Capa_2" xmlns="http://www.w3.org/2000/svg" viewBox="0 0 414.2915 84.3699"><g id="Components"><g id="_07e6450e-4379-4f86-86c2-0db724283ad1_1"><rect x="53.4331" y="20.8655" width="11.7029" height="45.3601" style="fill:#0b4650; stroke-width:0px;"/><path d="M59.239.9976c-1.936,0-3.614.7261-5.0349,2.178-1.4209,1.4509-2.1311,3.145-2.1311,5.0801s.7102,3.615,2.1311,5.0349c1.4209,1.4219,3.0989,2.1321,5.0349,2.1321,1.9961,0,3.7041-.7102,5.126-2.1321,1.4202-1.4199,2.1321-3.0991,2.1321-5.0349s-.7119-3.6292-2.1321-5.0801c-1.4219-1.4519-3.1299-2.178-5.126-2.178Z" style="fill:#0b4650; stroke-width:0px;"/><polygon points="23.8779 52.6106 12.8821 20.8655 0 20.8655 17.2371 66.2256 30.573 66.2256 47.8101 20.8655 34.927 20.8655 23.8779 52.6106" style="fill:#0b4650; stroke-width:0px;"/><rect x="245.5537" width="11.7031" height="66.2258" style="fill:#0b4650; stroke-width:0px;"/><path d="M294.3608,19.5959c-6.3501,0-11.249,2.208-14.6963,6.6218v-5.3518h-11.7026v63.5039h11.7026v-23.4968c3.4473,4.416,8.3462,6.6228,14.6963,6.6228,6.1079,0,11.3247-2.314,15.6489-6.9399,4.3237-4.627,6.4868-10.2971,6.4868-17.01s-2.1631-12.384-6.4868-17.01c-4.3242-4.627-9.541-6.9399-15.6489-6.9399ZM301.2104,52.7539c-2.3896,2.3901-5.3979,3.583-9.0269,3.583s-6.623-1.1929-8.981-3.583c-2.3589-2.3889-3.5381-5.458-3.5381-9.208s1.1792-6.8188,3.5381-9.208c2.3579-2.3889,5.3521-3.584,8.981-3.584s6.6372,1.1951,9.0269,3.584c2.3882,2.3892,3.583,5.458,3.583,9.208s-1.1948,6.8191-3.583,9.208Z" style="fill:#0b4650; stroke-width:0px;"/><path d="M223.2378,26.2178c-3.5083-4.4138-8.437-6.6218-14.7871-6.6218-6.0488,0-11.2349,2.313-15.5591,6.9399-4.3252,4.626-6.4858,10.2961-6.4858,17.01s2.1606,12.3831,6.4858,17.01c4.3242,4.626,9.5103,6.9399,15.5591,6.9399,6.3501,0,11.2788-2.2068,14.7871-6.6228v5.353h11.7026V20.866h-11.7026v5.3518ZM219.6548,52.7539c-2.3901,2.3901-5.3979,3.583-9.0273,3.583s-6.6226-1.1929-8.981-3.583c-2.3589-2.3889-3.5381-5.458-3.5381-9.208s1.1792-6.8188,3.5381-9.208c2.3584-2.3889,5.3521-3.584,8.981-3.584s6.6372,1.1951,9.0273,3.584c2.3877,2.3892,3.583,5.458,3.583,9.208s-1.1953,6.8191-3.583,9.208Z" style="fill:#0b4650; stroke-width:0px;"/><path d="M411.8877,45.269c-1.603-2.0552-3.5532-3.522-5.8511-4.4001-2.2988-.876-4.5972-1.6008-6.895-2.177-2.2988-.574-4.25-1.239-5.8511-1.9961-1.603-.7549-2.4038-1.7378-2.4038-2.9478,0-1.1482.499-2.0562,1.4971-2.7222.9971-.665,2.252-.998,3.7637-.998,3.3872,0,5.8062,1.543,7.2583,4.627l9.979-5.4429c-1.7549-3.085-4.1431-5.458-7.167-7.1221-3.0254-1.6619-6.3809-2.4939-10.0703-2.4939-4.8979,0-8.9956,1.2849-12.292,3.855-3.2969,2.571-4.9438,6.094-4.9438,10.5691,0,2.9639.8003,5.429,2.4038,7.394,1.6011,1.9658,3.5522,3.4019,5.8511,4.3088,2.2983.907,4.5962,1.6641,6.895,2.2681,2.2983.605,4.248,1.2859,5.8511,2.041,1.6021.7571,2.4038,1.739,2.4038,2.948,0,2.6021-2.0859,3.9009-6.2588,3.9009-4.5972,0-7.561-1.9639-8.8911-5.896l-10.1606,5.7151c3.3867,7.198,9.7368,10.7959,19.0518,10.7959,5.2002,0,9.5391-1.2559,13.0181-3.7649,3.4771-2.509,5.2158-6.093,5.2158-10.751,0-3.084-.8018-5.6541-2.4038-7.7109Z" style="fill:#0b4650; stroke-width:0px;"/><path d="M166.3564,45.3599c0,3.751-.9067,6.563-2.7217,8.437-1.814,1.875-4.2344,2.812-7.2573,2.812-2.7217,0-4.8989-.801-6.5317-2.4041-1.6328-1.6018-2.4492-3.9148-2.4492-6.9399v-26.3989h-11.7029v27.8508c0,5.8672,1.6169,10.4641,4.853,13.7891,3.2351,3.3271,7.3333,4.99,12.2932,4.99,6.1689,0,10.6729-2.1169,13.5166-6.3508v5.0811h11.7031V20.866h-11.7031v24.4939Z" style="fill:#0b4650; stroke-width:0px;"/><path d="M117.4731,8.1646l-11.7031,3.5378v7.908h-5.25l-.0005.0103c-2.7642.1167-5.2913.8354-7.5786,2.158-2.5098,1.4519-4.3088,3.9861-5.397,6.8889v-7.802h-11.7029v45.3601h11.7029v-21.6821c0-4.355,1.4062-7.8259,4.218-9.7009,2.457-1.637,5.29-2.7881,8.3459-2.772.001,0,.0017-.0022.0024-.0022h5.6597v18.916c0,6.23,1.647,10.5552,4.9441,12.9731,3.2959,2.418,8.9661,3.1748,17.01,2.2678v-10.614c-2.238.1221-4.114.1362-5.625.0452-1.5122-.0901-2.6621-.499-3.447-1.2241-.7871-.7258-1.179-1.874-1.179-3.448v-18.8699h10.251v-12.533h-10.251v-11.417Z" style="fill:#0b4650; stroke-width:0px;"/><path d="M335.4634,49.7161c-.02-.038-.037-.089-.057-.128-.001-.002-.003-.005-.004-.008.005.015.011.029.016.043-.012-.023-.027-.044-.039-.067l.084.16ZM365.6714,52.3691c0,2.138-1.733,3.871-3.871,3.871s-3.871-1.733-3.871-3.871,1.733-3.871,3.871-3.871,3.871,1.733,3.871,3.871M367.9444,52.3691c0-3.393-2.751-6.144-6.144-6.144-2.302,0-4.296,1.274-5.347,3.148-.204.293-.426.644-.457.694h-.011c-2.145,3.316-5.868,5.515-10.11,5.515-4.295,0-8.055-2.255-10.186-5.64l-.352-.527c.018.041.038.095.057.145.004.009.008.02.012.028.43.837.688,1.776.688,2.781,0,3.394-2.751,6.145-6.145,6.145-2.085,0-3.911-1.052-5.02-2.642.019.028.033.06.053.087,4.244,7.124,11.999,11.911,20.893,11.911,8.886,0,16.636-4.779,20.882-11.893-.15.205-.314.399-.487.584,1.031-1.098,1.674-2.566,1.674-4.192" style="fill:#0b4650; stroke-width:0px;"/><path d="M349.7412,25.3584c0,2.138-1.733,3.871-3.871,3.871s-3.87-1.733-3.87-3.871,1.733-3.871,3.87-3.871,3.871,1.733,3.871,3.871M370.2032,43.5424c0-13.308-10.69-24.104-23.949-24.309v.019c.003.001.005.001.008.002-.132-.009-.257-.04-.392-.04-3.393,0-6.144,2.751-6.144,6.144s2.751,6.144,6.144,6.144c.135,0,.26-.031.392-.039-.003,0-.005.001-.008.001v.057c6.473.202,11.661,5.5,11.661,12.021,0,1.992-.492,3.866-1.348,5.521l-.16.376c.028-.043.064-.085.094-.128,1.062-1.836,3.025-3.086,5.299-3.086,3.394,0,6.144,2.751,6.144,6.144,0,.812-.166,1.584-.452,2.294.001,0,.007-.008.006-.005,1.718-3.334,2.705-7.107,2.705-11.116" style="fill:#7ba2fc; stroke-width:0px;"/><path d="M333.8211,52.3683c0,2.138-1.733,3.871-3.871,3.871s-3.871-1.733-3.871-3.871,1.733-3.87,3.871-3.87,3.871,1.733,3.871,3.87M339.727,25.3583c0-3.391,2.746-6.139,6.136-6.143-13.43.007-24.316,10.895-24.316,24.327,0,4.02.992,7.803,2.719,11.144.915,2.243,3.112,3.827,5.684,3.827,3.393,0,6.144-2.751,6.144-6.145,0-1.005-.257-1.944-.688-2.78.02.039.037.089.057.127l-.26-.494c-.036-.06-.064-.125-.102-.184.006.009.013.017.019.026l.083.158c.072.12.139.242.203.367-.832-1.656-1.57-4.1-1.57-6.046,0-6.649,5.39-12.04,12.039-12.04h-.002c.047,0,.091-.013.139-.014-.047.005-.093.014-.141.014-3.394,0-6.144-2.751-6.144-6.144M345.8731,19.2143h.002-.002Z" style="fill:#01dc94; stroke-width:0px;"/></g></g></svg>